<?xml version="1.0" encoding="utf-8"?>
<!-- Generator: Adobe Illustrator 28.3.0, SVG Export Plug-In . SVG Version: 6.00 Build 0)  -->
<svg version="1.1" id="Layer_1" xmlns="http://www.w3.org/2000/svg" xmlns:xlink="http://www.w3.org/1999/xlink" x="0px" y="0px"
	 viewBox="0 0 500 500" style="enable-background:new 0 0 500 500;" xml:space="preserve">
<style type="text/css">
	.st0{fill:#1B1B1B;}
</style>
<g>
	<rect x="68.56" y="89.93" class="st0" width="154.16" height="15.78"/>
	<rect x="86.01" y="327.01" class="st0" width="118.71" height="15.78"/>
	<rect x="50" y="105.71" class="st0" width="36.01" height="15.78"/>
	<rect x="204.71" y="105.71" class="st0" width="36.01" height="15.78"/>
	<rect x="50" y="362.73" class="st0" width="209.28" height="15.78"/>
	<rect x="68" y="378.51" class="st0" width="363.99" height="15.78"/>
	<rect x="50" y="121.49" class="st0" width="18.56" height="241.23"/>
	<rect x="240.72" y="121.49" class="st0" width="18.56" height="241.23"/>
	<rect x="222.16" y="121.49" class="st0" width="18.56" height="21.67"/>
	<rect x="204.71" y="342.79" class="st0" width="18.31" height="19.93"/>
	<rect x="68.56" y="342.79" class="st0" width="17.45" height="19.93"/>
	
		<rect x="277.28" y="89.93" transform="matrix(-1 -4.489710e-11 4.489710e-11 -1 708.7239 195.6444)" class="st0" width="154.16" height="15.78"/>
	
		<rect x="295.29" y="327.01" transform="matrix(-1 -4.491264e-11 4.491264e-11 -1 709.2794 669.8057)" class="st0" width="118.71" height="15.78"/>
	
		<rect x="413.99" y="105.71" transform="matrix(-1 -4.483492e-11 4.483492e-11 -1 863.9933 227.2048)" class="st0" width="36.01" height="15.78"/>
	
		<rect x="259.28" y="105.71" transform="matrix(-1 -4.483492e-11 4.483492e-11 -1 554.5655 227.2048)" class="st0" width="36.01" height="15.78"/>
	
		<rect x="259.28" y="362.73" transform="matrix(-1 -4.488333e-11 4.488333e-11 -1 709.2794 741.2349)" class="st0" width="190.72" height="15.78"/>
	
		<rect x="431.44" y="121.49" transform="matrix(-1 -4.488955e-11 4.488955e-11 -1 881.4412 484.2198)" class="st0" width="18.56" height="241.23"/>
	
		<rect x="259.28" y="121.49" transform="matrix(-1 -4.484070e-11 4.484070e-11 -1 537.1177 264.6553)" class="st0" width="18.56" height="21.67"/>
	
		<rect x="276.98" y="342.79" transform="matrix(-1 -4.490998e-11 4.490998e-11 -1 572.2647 705.5203)" class="st0" width="18.31" height="19.93"/>
	
		<rect x="413.99" y="342.79" transform="matrix(-1 -4.482915e-11 4.482915e-11 -1 845.4345 705.5203)" class="st0" width="17.45" height="19.93"/>
	<rect x="223.02" y="394.29" class="st0" width="53.96" height="15.78"/>
	<rect x="317.97" y="143.16" class="st0" width="72.79" height="15.78"/>
	<rect x="295.29" y="179.83" class="st0" width="118.71" height="15.78"/>
	<rect x="295.29" y="216.5" class="st0" width="118.71" height="15.78"/>
	<rect x="295.29" y="253.17" class="st0" width="118.71" height="15.78"/>
	<rect x="317.97" y="289.84" class="st0" width="72.79" height="15.78"/>
</g>
</svg>
