<?xml version="1.0" encoding="utf-8"?>
<!-- Generator: Adobe Illustrator 28.3.0, SVG Export Plug-In . SVG Version: 6.00 Build 0)  -->
<svg version="1.1" id="Layer_1" xmlns="http://www.w3.org/2000/svg" xmlns:xlink="http://www.w3.org/1999/xlink" x="0px" y="0px"
	 viewBox="0 0 500 500" style="enable-background:new 0 0 500 500;" xml:space="preserve">
<style type="text/css">
	.st0{fill:#1B1B1B;}
</style>
<g>
	<rect x="187.3" y="57.1" class="st0" width="125.5" height="15.6"/>
	<rect x="152.6" y="72.7" class="st0" width="50.4" height="15.6"/>
	<rect x="134.9" y="88.4" class="st0" width="34.4" height="15.6"/>
	<rect x="117.7" y="104" class="st0" width="34.4" height="15.6"/>
	<rect x="101.6" y="119.6" class="st0" width="34.4" height="15.6"/>
	<rect x="84.4" y="135.3" class="st0" width="34.4" height="15.6"/>
	<rect x="67.2" y="166.5" class="st0" width="34.4" height="15.6"/>
	<rect x="50" y="197.8" class="st0" width="34.4" height="15.6"/>
	<rect x="84.4" y="150.9" class="st0" width="17.2" height="15.6"/>
	<rect x="67.2" y="182.2" class="st0" width="17.2" height="15.6"/>
	<rect x="50" y="213.5" class="st0" width="17.2" height="73.1"/>
	<rect x="432.8" y="213.5" class="st0" width="17.2" height="73.1"/>
	<rect x="347.9" y="104" class="st0" width="34.4" height="15.6"/>
	<rect x="364" y="119.7" class="st0" width="34.4" height="15.6"/>
	<rect x="381.2" y="135.3" class="st0" width="34.4" height="15.6"/>
	<rect x="398.4" y="166.6" class="st0" width="34.4" height="15.6"/>
	<rect x="415.6" y="197.8" class="st0" width="34.4" height="15.6"/>
	<rect x="398.4" y="150.9" class="st0" width="17.2" height="15.6"/>
	<rect x="415.6" y="182.2" class="st0" width="17.2" height="15.6"/>
	<rect x="330.7" y="88.4" class="st0" width="34.4" height="15.6"/>
	<rect x="297.8" y="72.7" class="st0" width="50" height="15.6"/>
	<rect x="187.3" y="427.3" class="st0" width="125.5" height="15.6"/>
	<rect x="152.6" y="411.6" class="st0" width="50.4" height="15.6"/>
	<rect x="134.9" y="396" class="st0" width="34.4" height="15.6"/>
	<rect x="117.7" y="380.4" class="st0" width="34.4" height="15.6"/>
	<rect x="101.6" y="364.7" class="st0" width="34.4" height="15.6"/>
	<rect x="84.4" y="349.1" class="st0" width="34.4" height="15.6"/>
	<rect x="67.2" y="317.8" class="st0" width="34.4" height="15.6"/>
	<rect x="50" y="286.6" class="st0" width="34.4" height="15.6"/>
	<rect x="84.4" y="333.5" class="st0" width="17.2" height="15.6"/>
	<rect x="67.2" y="302.2" class="st0" width="17.2" height="15.6"/>
	<rect x="347.9" y="380.4" class="st0" width="34.4" height="15.6"/>
	<rect x="364" y="364.7" class="st0" width="34.4" height="15.6"/>
	<rect x="381.2" y="349.1" class="st0" width="34.4" height="15.6"/>
	<rect x="398.4" y="317.8" class="st0" width="34.4" height="15.6"/>
	<rect x="415.6" y="286.5" class="st0" width="34.4" height="15.6"/>
	<rect x="398.4" y="333.5" class="st0" width="17.2" height="15.6"/>
	<rect x="415.6" y="302.2" class="st0" width="17.2" height="15.6"/>
	<rect x="330.7" y="396" class="st0" width="34.4" height="15.6"/>
	<rect x="297.8" y="411.6" class="st0" width="50" height="15.6"/>
</g>
<rect x="245" y="88" class="st0" width="10" height="40"/>
<rect x="375.7" y="245" class="st0" width="40" height="10"/>
<rect x="84.5" y="245" class="st0" width="40" height="10"/>
<rect x="245" y="368.2" class="st0" width="10" height="40"/>
</svg>
