<?xml version="1.0" encoding="utf-8"?>
<!-- Generator: Adobe Illustrator 28.3.0, SVG Export Plug-In . SVG Version: 6.00 Build 0)  -->
<svg version="1.1" id="Layer_1" xmlns="http://www.w3.org/2000/svg" xmlns:xlink="http://www.w3.org/1999/xlink" x="0px" y="0px"
	 viewBox="0 0 500 500" style="enable-background:new 0 0 500 500;" xml:space="preserve">
<style type="text/css">
	.st0{fill:#FFBD68;}
	.st1{fill:#7E3000;}
	.st2{fill:#5584D1;}
	.st3{fill:#F7F7F7;}
	.st4{fill:#1B1B1B;}
	.st5{fill:#FF5600;}
	.st6{fill:#F9183E;}
</style>
<g>
	<path class="st0" d="M245.23,128.92c0,16.03,0,34.91,0,34.91h-6.95v-14.89h-11.72v29.55h18.68v27.46h14.81v14.74h13.74v13.74h70.06
		l-0.05-127.58h-23.45v-21.6h-11.84v21.6h-63.28C245.23,106.87,245.23,117.12,245.23,128.92z"/>
	<polygon class="st1" points="308.42,402.05 308.42,414.22 332.01,414.22 332.01,402.05 355.53,402.05 355.53,390.67 344.22,390.67 
		344.22,378.35 332.01,378.35 332.01,390.67 320.75,390.67 320.75,402.05 	"/>
	<polygon class="st0" points="167.01,319.94 166.99,367.12 179.33,367.12 179.28,378.44 237.76,378.47 237.76,367.14 226.45,367.14 
		226.45,354.91 202.89,354.91 202.89,343.56 190.6,343.56 190.6,331.27 179.28,331.27 179.28,319.94 	"/>
	<polygon class="st0" points="261.33,331.29 261.33,354.91 250.01,354.91 250.01,367.14 273.55,367.14 273.55,402.05 284.89,402.05 
		284.89,414.22 297.19,414.22 297.19,402.05 308.42,402.05 308.42,390.67 320.75,390.67 320.75,378.35 332.01,378.35 332.01,343.56 
		320.71,343.56 320.71,319.94 308.51,319.94 308.51,319.94 273.58,319.94 273.58,331.29 	"/>
	<polygon class="st2" points="214.17,260.52 214.17,272.73 202.88,272.73 202.88,296.32 190.6,296.32 190.6,331.27 202.89,331.27 
		202.89,343.56 237.76,343.56 237.76,354.91 250.01,354.91 250.01,331.29 261.33,331.29 261.33,319.94 273.58,319.94 273.58,307.66 
		297.2,307.66 297.2,296.36 284.96,296.31 284.96,284.04 250.01,284.04 250.01,272.73 226.44,272.73 226.44,260.52 	"/>
	<polygon class="st3" points="155.69,202.13 155.69,189.79 167.04,189.79 167.04,178.5 226.55,178.5 226.51,189.79 238.21,189.79 
		238.21,202.53 250,202.53 250,214.38 261.98,214.38 261.98,225.69 273.58,225.61 273.58,236.99 284.96,236.99 332.06,236.99 
		332.06,249.22 332.06,260.54 344.31,260.54 344.31,284.04 284.96,284.04 284.96,272.73 250.01,272.73 250.01,260.52 226.44,260.52 
		226.42,249.23 214.17,249.23 214.17,236.92 202.85,236.92 202.85,225.64 190.56,225.64 190.56,213.42 179.36,213.42 179.36,202.13 
			"/>
	<polygon class="st0" points="119.91,225.64 119.91,272.77 132.13,272.77 132.13,284.1 190.56,284.04 190.56,236.92 179.36,236.92 
		179.36,225.64 167.04,225.64 167.04,213.42 132.13,213.42 132.13,225.64 	"/>
	<polyline class="st0" points="332.06,236.99 332.06,249.22 355.62,249.17 355.69,296.37 379.21,296.37 379.21,284.16 
		391.42,284.16 391.42,249.2 379.21,249.2 379.21,236.99 367.83,236.99 367.83,225.61 344.31,225.61 	"/>
	<rect x="273.7" y="120.57" class="st3" width="58.36" height="58.25"/>
	<rect x="285.68" y="178.83" class="st4" width="58.11" height="12.33"/>
	<rect x="296.9" y="202.41" class="st4" width="46.89" height="11.98"/>
	<rect x="332.07" y="214.38" class="st4" width="35.76" height="11.22"/>
	<rect x="273.7" y="120.57" class="st4" width="11.98" height="58.39"/>
	<rect x="238.28" y="148.95" class="st5" width="11.72" height="18.44"/>
	<rect x="168.16" y="120.57" class="st5" width="23.22" height="23.22"/>
	<rect x="143.91" y="143.79" class="st5" width="82.64" height="23.6"/>
	<rect x="332.07" y="120.57" class="st4" width="11.72" height="58.25"/>
	<rect x="250" y="132.07" class="st4" width="23.7" height="11.72"/>
	<rect x="332.06" y="225.61" class="st4" width="11.78" height="11.38"/>
	<rect x="344.31" y="260.54" class="st4" width="11.38" height="47.09"/>
	<rect x="332.06" y="249.17" class="st4" width="23.56" height="11.38"/>
	<rect x="261.98" y="214.38" class="st4" width="11.81" height="22.6"/>
	<rect x="250" y="202.41" class="st4" width="11.98" height="11.98"/>
	<rect x="273.78" y="225.61" class="st4" width="58.28" height="11.38"/>
	<rect x="226.42" y="236.92" class="st4" width="11.38" height="12.31"/>
	<rect x="261.33" y="319.94" class="st4" width="12.25" height="11.35"/>
	<rect x="273.58" y="307.66" class="st4" width="47.13" height="12.28"/>
	<rect x="214.17" y="249.23" class="st4" width="12.25" height="11.28"/>
	<rect x="226.44" y="260.52" class="st4" width="23.57" height="12.22"/>
	<rect x="261.98" y="236.92" class="st4" width="11.58" height="35.82"/>
	<rect x="250.01" y="272.73" class="st4" width="34.95" height="11.31"/>
	<rect x="297.2" y="296.36" class="st4" width="11.31" height="11.31"/>
	<rect x="297.18" y="236.99" class="st4" width="11.31" height="47.05"/>
	<rect x="320.71" y="319.94" class="st4" width="11.31" height="23.62"/>
	<rect x="332.01" y="343.56" class="st4" width="12.21" height="34.79"/>
	<rect x="355.69" y="272.79" class="st4" width="12.14" height="11.31"/>
	<rect x="355.69" y="296.37" class="st4" width="23.52" height="11.27"/>
	<rect x="284.96" y="284.04" class="st4" width="59.35" height="12.27"/>
	<rect x="143.47" y="178.5" class="st4" width="23.56" height="11.29"/>
	<rect x="132.13" y="189.79" class="st4" width="23.56" height="12.34"/>
	<rect x="119.91" y="202.13" class="st4" width="59.44" height="11.29"/>
	<rect x="119.91" y="213.42" class="st4" width="12.22" height="12.22"/>
	<rect x="119.91" y="272.77" class="st4" width="12.22" height="11.33"/>
	<rect x="155.69" y="319.94" class="st4" width="11.33" height="58.5"/>
	<rect x="166.99" y="367.12" class="st4" width="12.34" height="11.33"/>
	<rect x="179.28" y="319.94" class="st4" width="11.33" height="11.33"/>
	<rect x="179.28" y="378.44" class="st4" width="94.27" height="11.92"/>
	<rect x="190.6" y="331.27" class="st4" width="12.29" height="47.2"/>
	<rect x="250.01" y="331.29" class="st4" width="11.32" height="23.62"/>
	<rect x="202.89" y="343.56" class="st4" width="34.87" height="11.35"/>
	<rect x="226.45" y="354.91" class="st4" width="34.86" height="12.24"/>
	<rect x="250" y="367.14" class="st4" width="23.55" height="11.33"/>
	<rect x="261.36" y="390.34" class="st4" width="12.19" height="11.71"/>
	<rect x="273.55" y="402.05" class="st4" width="11.34" height="23.44"/>
	<rect x="284.89" y="414.22" class="st4" width="12.3" height="23.6"/>
	<rect x="297.19" y="390.67" class="st4" width="11.23" height="47.16"/>
	<rect x="308.42" y="414.22" class="st4" width="35.42" height="11.26"/>
	<rect x="308.42" y="390.67" class="st4" width="12.33" height="11.37"/>
	<rect x="355.53" y="390.67" class="st4" width="12.33" height="11.37"/>
	<rect x="332.01" y="402.05" class="st4" width="35.84" height="12.18"/>
	<rect x="308.51" y="378.35" class="st4" width="35.8" height="12.33"/>
	<rect x="344.22" y="378.35" class="st4" width="23.63" height="12.33"/>
	<rect x="132.18" y="319.94" class="st4" width="11.33" height="58.5"/>
	<rect x="143.5" y="367.12" class="st4" width="12.19" height="11.33"/>
	<rect x="143.5" y="319.94" class="st1" width="12.19" height="47.18"/>
	<rect x="132.13" y="284.1" class="st4" width="70.75" height="12.22"/>
	<rect x="108.58" y="225.64" class="st4" width="11.33" height="47.13"/>
	<rect x="167.04" y="213.42" class="st4" width="23.52" height="12.22"/>
	<rect x="167.04" y="249.23" class="st4" width="12.22" height="11.28"/>
	<rect x="167.04" y="260.52" class="st4" width="47.13" height="12.22"/>
	<rect x="155.69" y="296.32" class="st4" width="34.91" height="11.38"/>
	<rect x="143.5" y="307.7" class="st4" width="47.1" height="12.24"/>
	<rect x="179.31" y="272.73" class="st4" width="23.57" height="11.36"/>
	<rect x="179.36" y="225.64" class="st4" width="23.5" height="11.28"/>
	<rect x="190.56" y="236.92" class="st4" width="23.61" height="23.6"/>
	<rect x="226.51" y="178.5" class="st4" width="23.49" height="11.29"/>
	<rect x="238.21" y="189.79" class="st4" width="11.79" height="12.74"/>
	<rect x="367.83" y="225.61" class="st4" width="11.38" height="11.38"/>
	<rect x="379.21" y="236.99" class="st4" width="12.21" height="12.21"/>
	<rect x="379.21" y="284.16" class="st4" width="12.21" height="12.21"/>
	<rect x="320.18" y="132.07" class="st4" width="11.89" height="35.52"/>
	<rect x="191.38" y="61.72" class="st5" width="58.62" height="87.23"/>
	<rect x="244.94" y="61.72" class="st5" width="63.57" height="58.85"/>
	<rect x="320.34" y="61.79" class="st5" width="34.73" height="58.55"/>
	<rect x="203" y="50" class="st5" width="140.79" height="35.27"/>
	<polygon class="st6" points="273.58,236.99 273.53,272.73 284.96,272.73 284.96,284.04 297.18,284.04 297.18,236.99 	"/>
	<polygon class="st2" points="202.89,354.91 202.89,378.47 250,378.47 250.01,367.14 226.45,367.14 226.45,354.91 	"/>
	<rect x="166.99" y="319.94" class="st3" width="12.34" height="47.18"/>
	<rect x="284.89" y="378.47" class="st3" width="12.3" height="35.76"/>
	<rect x="297.19" y="367.12" class="st3" width="11.32" height="23.55"/>
	<rect x="308.51" y="354.88" class="st3" width="23.51" height="23.46"/>
	<rect x="273.45" y="249.23" class="st4" width="23.75" height="11.28"/>
	<rect x="273.7" y="108.62" class="st4" width="70.09" height="11.95"/>
</g>
</svg>
