<?xml version="1.0" encoding="utf-8"?>
<!-- Generator: Adobe Illustrator 28.3.0, SVG Export Plug-In . SVG Version: 6.00 Build 0)  -->
<svg version="1.1" id="Layer_1" xmlns="http://www.w3.org/2000/svg" xmlns:xlink="http://www.w3.org/1999/xlink" x="0px" y="0px"
	 viewBox="0 0 500 500" style="enable-background:new 0 0 500 500;" xml:space="preserve">
<style type="text/css">
	.st0{fill:#FFBD68;}
	.st1{fill:#F7F7F7;}
	.st2{fill:#1B1B1B;}
	.st3{fill:#FF5600;}
	.st4{fill:#5584D1;}
	.st5{fill:#7E3000;}
	.st6{fill:#F9183E;}
</style>
<g>
	<path class="st0" d="M245.66,141.09c0,16.1,0,35.08,0,35.08h-6.99v-14.96h-11.78v29.69h18.77v27.6h14.88v14.82h13.8v13.8h70.4
		l-0.05-128.2h-23.56v-21.7h-11.89v21.7h-63.58C245.66,118.92,245.66,129.22,245.66,141.09z"/>
	<polygon class="st1" points="179.39,308.16 167.29,308.2 167.29,296.83 155.92,296.83 155.92,284.67 143.76,284.67 143.76,249.9 
		155.92,249.9 155.92,226.48 167.82,226.48 167.82,203.41 190.62,203.41 190.62,191.63 226.89,191.63 226.85,202.25 238.6,202.25 
		238.65,249.9 226.22,249.9 226.22,237.74 202.79,237.73 202.77,261.19 190.61,261.19 190.61,273.38 179.39,273.38 	"/>
	<polygon class="st1" points="238.6,215.05 250.45,214.93 250.45,226.96 273.65,226.97 273.65,238.22 284.57,249.54 331.88,261.74 
		331.88,273.38 320.62,273.38 320.62,308.16 261.43,308.16 261.43,273.4 249.66,273.38 237.7,273.4 237.7,237.74 	"/>
	<rect x="274.27" y="132.7" class="st1" width="58.65" height="58.54"/>
	<rect x="286.31" y="191.23" class="st2" width="58.39" height="12.39"/>
	<rect x="297.57" y="214.93" class="st2" width="47.17" height="12.03"/>
	<rect x="274.27" y="132.7" class="st2" width="12.04" height="58.67"/>
	<rect x="238.67" y="161.21" class="st3" width="11.78" height="18.52"/>
	<rect x="168.22" y="132.7" class="st3" width="23.33" height="23.33"/>
	<rect x="143.85" y="156.03" class="st3" width="83.04" height="23.71"/>
	<rect x="332.92" y="132.7" class="st2" width="11.78" height="58.54"/>
	<rect x="250.45" y="144.25" class="st2" width="23.82" height="11.78"/>
	<rect x="262.49" y="226.96" class="st2" width="11.86" height="22.71"/>
	<rect x="250.45" y="214.93" class="st2" width="12.03" height="12.03"/>
	<rect x="274.27" y="238.11" class="st2" width="70.51" height="11.43"/>
	<rect x="190.62" y="179.74" class="st2" width="36.27" height="11.9"/>
	<rect x="226.85" y="190.91" class="st2" width="23.6" height="11.34"/>
	<rect x="238.6" y="202.25" class="st2" width="11.85" height="12.81"/>
	<rect x="320.97" y="144.25" class="st2" width="11.95" height="35.7"/>
	<rect x="191.55" y="73.56" class="st3" width="58.9" height="87.65"/>
	<rect x="245.36" y="73.56" class="st3" width="63.88" height="59.13"/>
	<rect x="321.14" y="73.63" class="st3" width="34.9" height="58.84"/>
	<rect x="203.22" y="61.78" class="st3" width="141.48" height="35.44"/>
	<rect x="274.27" y="120.68" class="st2" width="70.43" height="12.01"/>
	<polygon class="st4" points="249.21,320.38 249.21,343.55 226.22,343.55 226.22,355.46 214.06,355.46 214.06,367.37 320.14,367.37 
		320.14,343.55 308.49,343.55 308.49,320.38 	"/>
	<polygon class="st0" points="214.14,261.19 237.7,261.19 237.7,284.67 249.69,284.67 249.66,273.38 261.43,273.4 261.43,308.16 
		249.21,308.16 249.21,320.38 237.63,320.38 237.63,331.63 202.92,331.63 202.92,320.38 190.61,320.38 190.61,285.57 202.92,285.57 
		202.92,273.38 214.14,273.38 	"/>
	<polygon class="st0" points="331.88,249.56 331.88,308.16 320.62,308.16 320.62,320.38 355.3,320.38 355.3,249.56 	"/>
	<rect x="261.43" y="273.4" class="st2" width="12.22" height="46.99"/>
	<rect x="249.21" y="308.16" class="st2" width="12.22" height="12.22"/>
	<rect x="273.66" y="308.16" class="st2" width="46.96" height="12.22"/>
	<rect x="308.49" y="331.63" class="st2" width="28.06" height="11.91"/>
	<rect x="296.84" y="378.54" class="st2" width="23.3" height="12.22"/>
	<rect x="284.57" y="390.76" class="st2" width="35.57" height="11.34"/>
	<rect x="284.57" y="402.1" class="st2" width="23.44" height="12.25"/>
	<rect x="214.07" y="402.1" class="st2" width="12.25" height="12.25"/>
	<rect x="214.06" y="437.86" class="st2" width="93.95" height="12.14"/>
	<rect x="202.8" y="425.61" class="st2" width="11.26" height="12.25"/>
	<rect x="284.59" y="425.53" class="st2" width="12.25" height="12.33"/>
	<rect x="214.06" y="414.36" class="st2" width="93.95" height="11.17"/>
	<rect x="320.14" y="343.55" class="st2" width="11.74" height="34.99"/>
	<rect x="344.09" y="249.56" class="st2" width="11.21" height="23.83"/>
	<rect x="332.85" y="215.19" class="st2" width="11.89" height="22.91"/>
	<rect x="331.88" y="261.74" class="st2" width="12.22" height="11.64"/>
	<rect x="355.3" y="273.38" class="st2" width="12.22" height="47"/>
	<rect x="320.62" y="249.54" class="st2" width="11.27" height="58.62"/>
	<rect x="284.57" y="249.54" class="st2" width="12.28" height="58.62"/>
	<rect x="284.98" y="261.75" class="st2" width="46.91" height="11.63"/>
	<rect x="167.82" y="191.63" class="st2" width="22.81" height="11.78"/>
	<rect x="155.92" y="203.41" class="st2" width="11.9" height="23.07"/>
	<rect x="143.76" y="226.48" class="st2" width="12.16" height="23.42"/>
	<rect x="202.77" y="226.48" class="st2" width="12.16" height="23.42"/>
	<rect x="214.93" y="237.74" class="st2" width="11.29" height="12.16"/>
	<rect x="202.77" y="249.9" class="st2" width="34.93" height="11.29"/>
	<rect x="190.62" y="226.48" class="st2" width="12.16" height="11.24"/>
	<rect x="190.61" y="261.19" class="st2" width="23.53" height="12.19"/>
	<rect x="249.66" y="261.21" class="st2" width="23.98" height="12.18"/>
	<rect x="237.7" y="261.21" class="st2" width="11.99" height="23.46"/>
	<rect x="179.39" y="273.38" class="st2" width="23.53" height="12.19"/>
	<rect x="179.39" y="320.38" class="st2" width="23.53" height="11.25"/>
	<rect x="226.22" y="331.63" class="st2" width="22.99" height="11.91"/>
	<rect x="179.39" y="355.46" class="st2" width="34.67" height="11.91"/>
	<rect x="190.61" y="367.37" class="st2" width="129.53" height="11.27"/>
	<rect x="179.43" y="378.64" class="st2" width="34.63" height="46.97"/>
	<rect x="237.63" y="320.38" class="st2" width="23.8" height="11.25"/>
	<rect x="308.49" y="320.38" class="st2" width="46.81" height="11.25"/>
	<rect x="179.39" y="331.63" class="st2" width="46.83" height="23.82"/>
	<rect x="179.39" y="285.57" class="st2" width="11.22" height="34.81"/>
	<rect x="143.76" y="284.67" class="st2" width="12.16" height="12.16"/>
	<rect x="155.92" y="296.83" class="st2" width="11.37" height="11.37"/>
	<rect x="132.48" y="249.9" class="st2" width="11.28" height="34.77"/>
	<polygon class="st0" points="214.06,378.64 214.07,402.1 284.57,402.1 284.57,390.76 296.84,390.76 296.84,378.54 	"/>
	<rect x="226.32" y="402.12" class="st1" width="58.24" height="12.23"/>
	<rect x="214.06" y="425.61" class="st5" width="70.53" height="12.25"/>
	<rect x="191.15" y="390.32" class="st5" width="11.65" height="24.04"/>
	<rect x="296.84" y="273.4" class="st6" width="23.78" height="34.77"/>
	<rect x="296.81" y="249.56" class="st6" width="23.8" height="12.15"/>
</g>
</svg>
