<?xml version="1.0" encoding="utf-8"?>
<!-- Generator: Adobe Illustrator 28.3.0, SVG Export Plug-In . SVG Version: 6.00 Build 0)  -->
<svg version="1.1" id="Layer_1" xmlns="http://www.w3.org/2000/svg" xmlns:xlink="http://www.w3.org/1999/xlink" x="0px" y="0px"
	 viewBox="0 0 500 500" style="enable-background:new 0 0 500 500;" xml:space="preserve">
<style type="text/css">
	.st0{fill:#FFBD68;}
	.st1{fill:#F7F7F7;}
	.st2{fill:#1B1B1B;}
	.st3{fill:#FF5600;}
	.st4{fill:#7E3000;}
	.st5{fill:#5584D1;}
</style>
<g>
	<polygon class="st0" points="314.6,261.34 314.6,285.09 303.13,285.09 303.13,297.13 291.11,297.13 291.11,332.08 303.13,332.08 
		303.13,344.15 337.95,344.15 337.95,332.08 350.36,332.08 350.36,320.61 361.43,320.61 361.43,285.09 350.36,285.09 350.1,261.41 	
		"/>
	<polygon class="st1" points="196.96,203.37 196.96,214.35 173.44,214.35 173.44,237.8 162.24,237.8 162.24,250.11 149.93,250.11 
		149.93,297.1 162.24,297.1 162.24,308.34 173.46,308.34 173.46,261.31 185.76,261.31 185.76,237.8 209.33,237.8 209.33,215.15 
		220.53,215.17 220.53,203.37 	"/>
	<g>
		<path class="st0" d="M250.98,152.9c0,16.11,0,35.1,0,35.1h-6.99v-14.97H232.2v30.06h11.9l-0.12,27.26h21.88v14.82h13.81v13.81
			h70.43l-0.05-128.26h-23.57v-21.71h-11.9v21.71h-63.61C250.98,130.73,250.98,141.03,250.98,152.9z"/>
		<rect x="279.6" y="144.51" class="st1" width="58.67" height="58.56"/>
		<rect x="291.64" y="203.07" class="st2" width="58.41" height="12.4"/>
		<rect x="302.91" y="226.78" class="st2" width="47.19" height="12.04"/>
		<rect x="279.6" y="144.51" class="st2" width="12.04" height="58.7"/>
		<rect x="243.98" y="173.04" class="st3" width="11.79" height="18.53"/>
		<rect x="173.5" y="144.51" class="st3" width="23.34" height="23.34"/>
		<rect x="149.12" y="167.85" class="st3" width="83.08" height="23.72"/>
		<rect x="338.27" y="144.51" class="st2" width="11.79" height="58.56"/>
		<rect x="255.77" y="156.06" class="st2" width="23.83" height="11.79"/>
		<rect x="326.32" y="156.06" class="st2" width="11.95" height="35.71"/>
		<rect x="196.84" y="85.35" class="st3" width="58.93" height="87.69"/>
		<rect x="250.68" y="85.35" class="st3" width="63.91" height="59.16"/>
		<rect x="326.48" y="85.41" class="st3" width="34.92" height="58.86"/>
		<rect x="208.52" y="73.56" class="st3" width="141.54" height="35.45"/>
		<rect x="279.6" y="132.49" class="st2" width="70.46" height="12.02"/>
	</g>
	<rect x="185.76" y="237.8" class="st1" width="23.57" height="70.54"/>
	<polygon class="st1" points="291.11,237.9 291.11,297.13 279.47,297.16 279.47,320.7 267.47,320.61 267.47,332.08 244.1,332.08 
		244.1,320.7 220.52,320.61 220.52,308.34 209.33,308.34 209.33,261.31 220.53,261.31 220.53,226.67 232.35,226.67 232.35,215.15 
		279.84,214.35 279.84,237.9 	"/>
	<rect x="267.47" y="402.49" class="st4" width="35.65" height="23.48"/>
	<rect x="138.76" y="367.71" class="st4" width="23.59" height="47.54"/>
	<rect x="150.85" y="415.12" class="st4" width="34.2" height="22.92"/>
	<polygon class="st1" points="173.27,355.62 173.27,425.97 209.3,425.97 209.3,414.43 185.76,414.43 185.88,355.62 	"/>
	<rect x="303.13" y="250.51" class="st2" width="46.97" height="10.9"/>
	<rect x="338.41" y="238.82" class="st2" width="11.7" height="11.7"/>
	<rect x="256.33" y="250.07" class="st2" width="34.79" height="11.35"/>
	<rect x="196.96" y="191.57" class="st2" width="47.14" height="11.8"/>
	<rect x="220.53" y="203.37" class="st2" width="23.57" height="11.8"/>
	<rect x="243.98" y="214.35" class="st2" width="35.85" height="12.25"/>
	<rect x="173.44" y="203.37" class="st2" width="23.52" height="10.98"/>
	<rect x="173.46" y="261.31" class="st2" width="12.29" height="70.78"/>
	<rect x="162.24" y="214.35" class="st2" width="11.2" height="23.45"/>
	<rect x="149.93" y="237.8" class="st2" width="12.32" height="12.32"/>
	<rect x="149.93" y="297.1" class="st2" width="12.32" height="11.24"/>
	<rect x="162.24" y="308.34" class="st2" width="11.22" height="12.28"/>
	<rect x="150.05" y="344.15" class="st2" width="35.71" height="11.47"/>
	<rect x="138.76" y="355.62" class="st2" width="34.51" height="12.09"/>
	<rect x="138.76" y="415.25" class="st2" width="12.09" height="22.65"/>
	<rect x="173.27" y="414.43" class="st2" width="12.48" height="11.54"/>
	<rect x="185.76" y="355.62" class="st2" width="11.6" height="10.71"/>
	<rect x="197.5" y="366.33" class="st2" width="11.48" height="25.24"/>
	<rect x="209.19" y="391.57" class="st2" width="11.48" height="22.86"/>
	<rect x="150.85" y="437.91" class="st2" width="46.11" height="12.09"/>
	<rect x="267.46" y="355.62" class="st2" width="23.66" height="12.09"/>
	<rect x="244.33" y="355.62" class="st2" width="12.09" height="46.87"/>
	<rect x="326.72" y="355.62" class="st2" width="11.23" height="35.95"/>
	<rect x="256.42" y="367.71" class="st2" width="11.04" height="34.78"/>
	<rect x="267.46" y="367.71" class="st2" width="12.38" height="10.92"/>
	<rect x="291.04" y="367.71" class="st2" width="23.3" height="11.83"/>
	<rect x="314.34" y="379.54" class="st2" width="12.38" height="12.02"/>
	<rect x="303.12" y="391.57" class="st2" width="23.6" height="10.92"/>
	<rect x="279.84" y="402.49" class="st2" width="34.49" height="10.92"/>
	<rect x="303.12" y="413.41" class="st2" width="11.22" height="12.56"/>
	<rect x="279.74" y="425.97" class="st2" width="23.38" height="11.94"/>
	<rect x="232.64" y="402.49" class="st2" width="34.83" height="11.94"/>
	<rect x="209.3" y="414.43" class="st2" width="23.34" height="11.54"/>
	<rect x="184.76" y="425.97" class="st2" width="24.54" height="12.21"/>
	<rect x="267.46" y="391.57" class="st2" width="12.38" height="10.92"/>
	<rect x="162.35" y="367.71" class="st2" width="10.92" height="47.54"/>
	<rect x="126.44" y="367.71" class="st2" width="12.32" height="47.54"/>
	<rect x="138.61" y="250.11" class="st2" width="11.31" height="46.99"/>
	<rect x="209.33" y="215.15" class="st2" width="23.02" height="11.52"/>
	<rect x="185.76" y="308.34" class="st2" width="34.77" height="12.28"/>
	<rect x="209.33" y="320.7" class="st2" width="34.77" height="11.38"/>
	<rect x="232.69" y="344.15" class="st2" width="34.77" height="11.47"/>
	<rect x="279.74" y="344.15" class="st2" width="58.22" height="11.47"/>
	<rect x="209.33" y="226.59" class="st2" width="11.2" height="34.71"/>
	<rect x="196.96" y="261.31" class="st2" width="12.37" height="47.03"/>
	<rect x="185.76" y="226.59" class="st2" width="11.2" height="34.71"/>
	<rect x="279.84" y="225.67" class="st2" width="11.27" height="12.24"/>
	<rect x="291.11" y="237.9" class="st2" width="12.02" height="23.51"/>
	<rect x="291.11" y="273.62" class="st2" width="12.02" height="23.51"/>
	<rect x="279.47" y="297.16" class="st2" width="12.02" height="23.54"/>
	<rect x="303.13" y="261.34" class="st2" width="11.47" height="23.74"/>
	<rect x="350.1" y="261.31" class="st2" width="11.33" height="23.78"/>
	<rect x="350.36" y="320.61" class="st2" width="11.07" height="11.47"/>
	<rect x="267.47" y="320.61" class="st2" width="23.64" height="11.47"/>
	<rect x="337.95" y="332.08" class="st2" width="12.41" height="12.07"/>
	<rect x="209.33" y="332.08" class="st2" width="93.81" height="12.07"/>
	<rect x="162.24" y="332.08" class="st2" width="23.42" height="12.07"/>
	<rect x="361.43" y="285.09" class="st2" width="12.13" height="35.53"/>
	<polygon class="st5" points="291.11,355.62 291.04,367.71 314.34,367.71 314.34,379.54 326.72,379.54 326.72,355.62 	"/>
	<rect x="267.47" y="344.15" class="st5" width="12.27" height="11.47"/>
	<rect x="256.16" y="355.62" class="st5" width="11.3" height="12.09"/>
	<polygon class="st5" points="185.76,320.61 185.88,355.62 197.36,355.62 197.5,366.33 208.98,366.33 209.19,391.57 220.67,391.57 
		220.67,414.43 232.64,414.43 232.64,402.49 244.33,402.49 244.33,355.62 232.69,355.62 232.69,344.15 209.33,344.15 209.33,320.7 	
		"/>
	<polygon class="st0" points="279.84,391.57 267.46,391.57 267.46,378.63 279.84,378.63 279.84,367.71 291.04,367.71 291.04,379.54 
		314.34,379.54 314.34,391.57 	"/>
	<polygon class="st0" points="185.76,366.33 185.76,414.43 209.3,414.43 209.19,391.57 197.5,391.57 197.5,366.33 	"/>
	<rect x="279.84" y="391.57" class="st1" width="23.29" height="10.92"/>
	<rect x="291.11" y="261.34" class="st1" width="12.02" height="12.27"/>
</g>
</svg>
