<?xml version="1.0" encoding="utf-8"?>
<!-- Generator: Adobe Illustrator 28.3.0, SVG Export Plug-In . SVG Version: 6.00 Build 0)  -->
<svg version="1.1" id="Layer_1" xmlns="http://www.w3.org/2000/svg" xmlns:xlink="http://www.w3.org/1999/xlink" x="0px" y="0px"
	 viewBox="0 0 500 500" style="enable-background:new 0 0 500 500;" xml:space="preserve">
<style type="text/css">
	.st0{fill:#F7F7F7;}
	.st1{fill:#5584D1;}
	.st2{fill:#FFBD68;}
	.st3{fill:#1B1B1B;}
	.st4{fill:#FF5600;}
	.st5{fill:#7E3000;}
</style>
<g>
	<polygon class="st0" points="176.37,167.26 212.68,167.26 212.68,179.11 200.9,179.11 200.9,203.74 188.15,203.74 188.15,240.82 
		176.37,240.82 176.37,265.52 163.45,265.52 163.45,252.79 151.67,252.79 151.67,240.82 138.86,240.82 138.86,191.89 151.67,191.89 
		151.67,179.07 176.37,179.07 	"/>
	<polygon class="st1" points="188.15,277.97 188.15,314.57 200.41,314.57 200.41,339.5 212.67,339.5 212.67,351.76 237.24,351.76 
		237.24,364.02 250.13,364.02 250.13,351.76 274.65,351.76 274.65,302.6 250.13,302.6 250.13,277.71 	"/>
	<g>
		<path class="st2" d="M256.82,129.05c0,16.05,0,34.97,0,34.97h-6.97v-14.91h-11.74v29.6h18.71v27.51h14.83v14.77h13.76v13.76h70.17
			l-0.05-127.78h-23.48V85.32H320.2v21.63h-63.37C256.82,106.95,256.82,117.22,256.82,129.05z"/>
		<rect x="285.34" y="120.68" class="st0" width="58.45" height="58.35"/>
		<rect x="297.34" y="179.03" class="st3" width="58.2" height="12.35"/>
		<rect x="285.34" y="120.68" class="st3" width="12" height="58.48"/>
		<rect x="249.86" y="149.11" class="st4" width="11.74" height="18.46"/>
		<rect x="179.64" y="120.68" class="st4" width="23.25" height="23.25"/>
		<rect x="155.34" y="143.94" class="st4" width="82.77" height="23.63"/>
		<rect x="343.79" y="120.68" class="st3" width="11.74" height="58.35"/>
		<rect x="261.6" y="132.2" class="st3" width="23.74" height="11.74"/>
		<rect x="331.89" y="132.2" class="st3" width="11.91" height="35.58"/>
		<rect x="202.89" y="61.74" class="st4" width="58.71" height="87.36"/>
		<rect x="256.53" y="61.74" class="st4" width="63.67" height="58.94"/>
		<rect x="332.05" y="61.81" class="st4" width="34.79" height="58.64"/>
		<rect x="214.52" y="50" class="st4" width="141.01" height="35.32"/>
		<rect x="285.34" y="108.71" class="st3" width="70.2" height="11.97"/>
	</g>
	<rect x="311.29" y="388.54" class="st5" width="49.4" height="23.14"/>
	<polygon class="st0" points="286.59,388.54 286.59,411.69 299.17,411.69 299.17,400.52 311.29,400.52 311.29,388.54 323.55,388.54 
		323.55,376.14 336.35,376.28 336.35,364.02 286.26,364.08 	"/>
	<polygon class="st0" points="360.06,240.85 360.06,228.4 348.28,228.4 348.28,216.4 335.67,216.4 311.27,216.4 311.27,203.74 
		261.82,203.74 261.82,191.38 226.37,178.68 200.78,178.55 200.9,203.74 200.9,252.79 188.15,252.79 188.15,265.52 261.82,265.52 
		261.82,277.97 286.29,277.71 286.29,290.15 348.28,290.15 348.28,277.71 360.06,277.71 	"/>
	<rect x="151.67" y="167.26" class="st3" width="24.7" height="11.82"/>
	<rect x="212.68" y="167.57" class="st3" width="25.44" height="11.11"/>
	<rect x="138.86" y="179.07" class="st3" width="12.81" height="12.81"/>
	<rect x="138.86" y="240.82" class="st3" width="12.81" height="11.97"/>
	<rect x="151.67" y="252.79" class="st3" width="11.78" height="12.73"/>
	<rect x="163.45" y="265.52" class="st3" width="24.7" height="24.7"/>
	<rect x="151.67" y="290.25" class="st3" width="36.48" height="12.35"/>
	<rect x="138.92" y="302.07" class="st3" width="49.23" height="12.76"/>
	<rect x="127.05" y="314.57" class="st3" width="11.87" height="61.71"/>
	<rect x="151.63" y="314.57" class="st3" width="11.87" height="61.71"/>
	<rect x="163.49" y="364.02" class="st3" width="12.92" height="12.26"/>
	<rect x="176.42" y="376.28" class="st3" width="85.36" height="12.26"/>
	<rect x="237.25" y="364.02" class="st3" width="37.33" height="12.26"/>
	<rect x="250.13" y="351.76" class="st3" width="12.26" height="12.26"/>
	<rect x="274.58" y="364.02" class="st3" width="23.37" height="12.26"/>
	<rect x="261.77" y="376.28" class="st3" width="12.8" height="24.24"/>
	<rect x="274.58" y="400.52" class="st3" width="12.02" height="24.24"/>
	<rect x="310.75" y="302.45" class="st3" width="12.8" height="12.37"/>
	<rect x="297.95" y="351.71" class="st3" width="12.8" height="12.37"/>
	<rect x="310.75" y="339.45" class="st3" width="12.8" height="12.8"/>
	<rect x="323.55" y="314.82" class="st3" width="12.8" height="24.8"/>
	<rect x="323.55" y="376.14" class="st3" width="49.4" height="12.4"/>
	<rect x="286.59" y="424.76" class="st3" width="24.7" height="13.07"/>
	<rect x="286.59" y="411.69" class="st3" width="48.77" height="13.07"/>
	<rect x="299.17" y="400.52" class="st3" width="12.12" height="11.17"/>
	<rect x="335.36" y="400.52" class="st3" width="25.33" height="11.17"/>
	<rect x="311.29" y="388.54" class="st3" width="12.26" height="11.98"/>
	<rect x="360.69" y="388.54" class="st3" width="12.26" height="11.98"/>
	<rect x="336.35" y="339.63" class="st3" width="12.8" height="36.66"/>
	<rect x="200.41" y="339.5" class="st3" width="12.26" height="12.26"/>
	<rect x="212.67" y="351.76" class="st3" width="24.57" height="12.26"/>
	<rect x="188.15" y="314.57" class="st3" width="12.26" height="24.93"/>
	<rect x="262.39" y="314.57" class="st3" width="12.26" height="37.19"/>
	<rect x="176.37" y="240.82" class="st3" width="11.78" height="24.7"/>
	<rect x="188.15" y="203.74" class="st3" width="12.75" height="49.05"/>
	<rect x="127.27" y="191.89" class="st3" width="11.59" height="48.94"/>
	<rect x="226.37" y="178.68" class="st3" width="35.44" height="12.7"/>
	<rect x="261.82" y="191.38" class="st3" width="35.52" height="12.35"/>
	<rect x="297.34" y="203.74" class="st3" width="58.2" height="12.67"/>
	<rect x="343.79" y="216.4" class="st3" width="29.14" height="12"/>
	<rect x="360.06" y="228.4" class="st3" width="12.88" height="12.45"/>
	<rect x="348.28" y="277.71" class="st3" width="11.78" height="12.45"/>
	<rect x="250.13" y="277.71" class="st3" width="36.16" height="12.45"/>
	<rect x="250.13" y="290.15" class="st3" width="98.15" height="12.45"/>
	<rect x="188.15" y="265.52" class="st3" width="73.67" height="12.45"/>
	<rect x="360.06" y="240.85" class="st3" width="12.88" height="36.86"/>
	<rect x="237.25" y="216.36" class="st3" width="12.88" height="61.35"/>
	<polygon class="st1" points="274.65,302.6 274.65,351.76 262.39,351.76 262.39,364.02 297.95,364.08 297.95,351.71 310.75,352.25 
		310.75,339.45 323.55,339.63 323.55,314.82 310.75,314.82 310.75,302.45 	"/>
	<polygon class="st2" points="176.42,314.82 176.42,376.28 237.25,376.28 237.24,364.02 212.67,364.02 212.67,351.76 200.41,351.76 
		200.41,339.5 188.15,339.5 188.15,314.57 	"/>
	<polygon class="st2" points="274.58,376.28 297.95,376.28 297.95,364.08 310.75,364.08 310.75,352.25 323.55,352.25 323.55,339.63 
		336.35,339.63 336.35,364.02 323.63,364.08 323.55,376.14 311.29,376.28 311.29,388.54 286.59,388.54 286.59,400.52 274.58,400.52 
			"/>
	<polygon class="st0" points="163.49,314.57 163.49,364.02 176.42,364.02 176.42,314.82 	"/>
	<rect x="138.86" y="314.82" class="st5" width="12.81" height="49.26"/>
</g>
</svg>
