<?xml version="1.0" encoding="utf-8"?>
<!-- Generator: Adobe Illustrator 28.3.0, SVG Export Plug-In . SVG Version: 6.00 Build 0)  -->
<svg version="1.1" id="Layer_1" xmlns="http://www.w3.org/2000/svg" xmlns:xlink="http://www.w3.org/1999/xlink" x="0px" y="0px"
	 viewBox="0 0 500 500" style="enable-background:new 0 0 500 500;" xml:space="preserve">
<style type="text/css">
	.st0{fill:#FFBD68;}
	.st1{fill:#F7F7F7;}
	.st2{fill:#1B1B1B;}
	.st3{fill:#FF5600;}
	.st4{fill:#F9183E;}
	.st5{fill:#5584D1;}
	.st6{fill:#7E3000;}
</style>
<g>
	<path class="st0" d="M245.67,140.93c0,16.07,0,35.01,0,35.01h-6.97v-14.93h-11.76v29.63h18.73v27.54h14.85v14.78h13.78v13.78h70.25
		l-0.05-127.93h-23.51V97.16h-11.87v21.66h-63.45C245.67,118.81,245.67,129.09,245.67,140.93z"/>
	<polygon class="st1" points="179.54,307.66 167.46,307.69 167.46,296.35 156.11,296.35 156.11,284.21 143.98,284.21 143.98,249.52 
		156.11,249.52 156.11,226.15 167.99,226.15 167.99,203.13 190.75,203.13 190.75,191.37 226.94,191.37 226.9,201.97 238.62,201.97 
		238.67,249.52 226.27,249.52 226.27,237.38 202.88,237.37 202.87,260.78 190.73,260.78 190.73,272.95 179.54,272.95 	"/>
	<polygon class="st1" points="238.62,214.74 250.45,214.62 250.45,226.63 273.6,226.64 273.6,237.86 284.49,249.16 331.71,261.33 
		331.71,272.95 320.47,272.95 320.47,307.66 261.4,307.66 261.4,272.96 249.66,272.95 237.73,272.96 237.73,237.38 	"/>
	<rect x="274.22" y="132.56" class="st1" width="58.52" height="58.41"/>
	<rect x="286.23" y="190.97" class="st2" width="58.27" height="12.37"/>
	<rect x="297.47" y="214.62" class="st2" width="47.07" height="12.01"/>
	<rect x="274.22" y="132.56" class="st2" width="12.01" height="58.55"/>
	<rect x="238.7" y="161.02" class="st3" width="11.76" height="18.49"/>
	<rect x="168.39" y="132.56" class="st3" width="23.28" height="23.28"/>
	<rect x="144.07" y="155.84" class="st3" width="82.87" height="23.66"/>
	<rect x="332.74" y="132.56" class="st2" width="11.76" height="58.41"/>
	<rect x="250.45" y="144.08" class="st2" width="23.77" height="11.76"/>
	<rect x="262.46" y="226.63" class="st2" width="11.84" height="22.66"/>
	<rect x="250.45" y="214.62" class="st2" width="12.01" height="12.01"/>
	<rect x="274.22" y="237.75" class="st2" width="70.36" height="11.41"/>
	<rect x="190.75" y="179.5" class="st2" width="36.19" height="11.87"/>
	<rect x="226.9" y="190.65" class="st2" width="23.55" height="11.32"/>
	<rect x="238.62" y="201.97" class="st2" width="11.83" height="12.78"/>
	<rect x="320.82" y="144.08" class="st2" width="11.92" height="35.62"/>
	<rect x="191.67" y="73.55" class="st3" width="58.78" height="87.47"/>
	<rect x="245.37" y="73.55" class="st3" width="63.74" height="59.01"/>
	<rect x="320.99" y="73.62" class="st3" width="34.83" height="58.71"/>
	<rect x="203.32" y="61.79" class="st3" width="141.18" height="35.36"/>
	<rect x="274.22" y="120.57" class="st2" width="70.28" height="11.99"/>
	<polygon class="st0" points="214.21,260.78 237.73,260.78 237.73,284.21 249.69,284.21 249.66,272.95 261.4,272.96 261.4,307.66 
		249.21,307.66 249.21,319.85 237.66,319.85 237.66,331.08 203.01,331.08 203.01,319.85 190.73,319.85 190.73,285.12 203.01,285.12 
		203.01,272.95 214.21,272.95 	"/>
	<polygon class="st0" points="331.71,249.17 331.71,307.66 320.47,307.66 320.47,319.85 355.08,319.85 355.08,249.17 	"/>
	<rect x="261.4" y="272.96" class="st2" width="12.19" height="46.89"/>
	<rect x="249.21" y="307.66" class="st2" width="12.19" height="12.19"/>
	<rect x="343.89" y="249.17" class="st2" width="11.19" height="23.78"/>
	<rect x="332.68" y="214.88" class="st2" width="11.87" height="22.86"/>
	<rect x="331.71" y="261.33" class="st2" width="12.19" height="11.62"/>
	<rect x="355.08" y="272.95" class="st2" width="12.19" height="46.9"/>
	<rect x="320.47" y="249.16" class="st2" width="11.24" height="58.5"/>
	<rect x="284.49" y="249.16" class="st2" width="12.25" height="58.5"/>
	<rect x="284.91" y="261.34" class="st2" width="46.81" height="11.61"/>
	<rect x="167.99" y="191.37" class="st2" width="22.76" height="11.76"/>
	<rect x="156.11" y="203.13" class="st2" width="11.88" height="23.02"/>
	<rect x="143.98" y="226.15" class="st2" width="12.14" height="23.37"/>
	<rect x="202.87" y="226.15" class="st2" width="12.14" height="23.37"/>
	<rect x="215" y="237.38" class="st2" width="11.26" height="12.14"/>
	<rect x="202.87" y="249.52" class="st2" width="34.86" height="11.26"/>
	<rect x="190.75" y="226.15" class="st2" width="12.14" height="11.22"/>
	<rect x="190.73" y="260.78" class="st2" width="23.48" height="12.17"/>
	<rect x="249.66" y="260.8" class="st2" width="23.93" height="12.15"/>
	<rect x="237.73" y="260.8" class="st2" width="11.96" height="23.41"/>
	<rect x="179.54" y="272.95" class="st2" width="23.48" height="12.17"/>
	<rect x="179.54" y="319.85" class="st2" width="23.48" height="11.23"/>
	<rect x="308.37" y="319.85" class="st2" width="46.71" height="11.23"/>
	<rect x="179.54" y="285.12" class="st2" width="11.2" height="34.74"/>
	<rect x="143.98" y="284.21" class="st2" width="12.14" height="12.14"/>
	<rect x="156.11" y="296.35" class="st2" width="11.35" height="11.35"/>
	<rect x="132.72" y="249.52" class="st2" width="11.26" height="34.69"/>
	<rect x="296.74" y="272.96" class="st4" width="23.73" height="34.69"/>
	<rect x="296.72" y="249.17" class="st4" width="23.75" height="12.13"/>
	<rect x="214.23" y="384.59" class="st0" width="83.06" height="22.32"/>
	<rect x="179.54" y="329.52" class="st2" width="70.5" height="11.35"/>
	<rect x="284.69" y="340.88" class="st2" width="23.69" height="11.35"/>
	<rect x="190.84" y="363.01" class="st2" width="23.51" height="10.22"/>
	<rect x="203.02" y="384.59" class="st2" width="34.84" height="10.85"/>
	<rect x="203.02" y="417.52" class="st2" width="81.8" height="10.85"/>
	<rect x="214.23" y="439.15" class="st2" width="94.14" height="10.85"/>
	<rect x="297.29" y="384.59" class="st2" width="23.56" height="10.85"/>
	<rect x="179.54" y="350.73" class="st2" width="34.82" height="12.28"/>
	<rect x="179.54" y="340.88" class="st2" width="46.64" height="9.86"/>
	<rect x="297.16" y="373.24" class="st2" width="23.69" height="11.35"/>
	<rect x="203.02" y="373.24" class="st2" width="94.27" height="11.35"/>
	<rect x="297.16" y="352.23" class="st2" width="11.21" height="21.01"/>
	<rect x="297.16" y="395.44" class="st2" width="11.21" height="22.08"/>
	<rect x="284.82" y="406.9" class="st2" width="12.34" height="32.25"/>
	<rect x="203.02" y="395.44" class="st2" width="11.21" height="43.71"/>
	<rect x="320.85" y="330.42" class="st2" width="11.21" height="42.82"/>
	<rect x="237.42" y="319.07" class="st2" width="24.2" height="10.46"/>
	<rect x="250.04" y="307.71" class="st2" width="70.81" height="12.14"/>
	<polygon class="st5" points="308.38,319.07 308.38,330.42 320.85,330.42 320.85,373.24 308.38,373.24 308.38,340.88 284.69,340.88 
		284.69,352.23 297.16,352.23 297.16,373.24 214.35,373.24 214.35,350.73 226.18,350.73 226.18,340.88 250.04,340.88 250.04,329.52 
		261.62,329.52 261.62,319.07 	"/>
	<rect x="214.35" y="406.9" class="st1" width="70.46" height="10.61"/>
	<rect x="214.23" y="428.37" class="st6" width="70.58" height="10.79"/>
</g>
</svg>
