<?xml version="1.0" encoding="utf-8"?>
<!-- Generator: Adobe Illustrator 28.3.0, SVG Export Plug-In . SVG Version: 6.00 Build 0)  -->
<svg version="1.1" id="Layer_1" xmlns="http://www.w3.org/2000/svg" xmlns:xlink="http://www.w3.org/1999/xlink" x="0px" y="0px"
	 viewBox="0 0 500 500" style="enable-background:new 0 0 500 500;" xml:space="preserve">
<style type="text/css">
	.st0{fill:#F7F7F7;}
	.st1{fill:#FFBD68;}
	.st2{fill:#1B1B1B;}
	.st3{fill:#FF5600;}
	.st4{fill:#7E3000;}
	.st5{fill:#5584D1;}
	.st6{fill:#F9183E;}
</style>
<g>
	<polygon class="st0" points="138.81,238.79 138.81,297.59 150.98,297.59 150.98,285.55 162.14,285.54 162.14,274.41 174.18,274.41 
		174.18,262.26 220.66,262.26 220.66,274.41 232.35,274.41 232.33,285.54 244.36,285.54 244.41,308.79 255.56,308.79 255.56,297.72 
		314.56,297.72 314.56,274.41 278.93,274.41 278.93,262.15 267.89,262.15 267.89,251.12 255.56,251.12 255.56,239.54 243.56,239.54 
		243.56,227.54 243.56,203.07 221.13,202.8 174.18,203.07 174.18,227.54 151.14,227.54 151.14,238.79 	"/>
	<g>
		<path class="st1" d="M239.87,152.72c0,16.07,0,35.02,0,35.02h-6.98v-14.93h-11.76v29.99h11.87v12.05h22.55v24.7l12.33-0.76v12.33
			l70.85-0.04l-0.02-120.48H315.2v-21.66h-11.87v21.66h-63.46C239.87,130.6,239.87,140.88,239.87,152.72z"/>
		<rect x="268.43" y="144.35" class="st0" width="58.54" height="58.43"/>
		<rect x="280.44" y="202.77" class="st2" width="58.28" height="12.37"/>
		<rect x="291.69" y="226.42" class="st2" width="47.08" height="12.01"/>
		<rect x="268.43" y="144.35" class="st2" width="12.02" height="58.56"/>
		<rect x="232.89" y="172.81" class="st3" width="11.76" height="18.49"/>
		<rect x="162.57" y="144.35" class="st3" width="23.29" height="23.29"/>
		<rect x="138.25" y="167.63" class="st3" width="82.89" height="23.67"/>
		<rect x="326.96" y="144.35" class="st2" width="11.76" height="58.43"/>
		<rect x="244.65" y="155.87" class="st2" width="23.77" height="11.76"/>
		<rect x="315.04" y="155.87" class="st2" width="11.92" height="35.63"/>
		<rect x="185.86" y="85.32" class="st3" width="58.79" height="87.49"/>
		<rect x="239.57" y="85.32" class="st3" width="63.76" height="59.02"/>
		<rect x="315.2" y="85.39" class="st3" width="34.84" height="58.73"/>
		<rect x="197.51" y="73.56" class="st3" width="141.21" height="35.37"/>
		<rect x="268.43" y="132.36" class="st2" width="70.29" height="11.99"/>
	</g>
	<rect x="185.98" y="191.3" class="st2" width="47.03" height="11.77"/>
	<rect x="221.24" y="203.07" class="st2" width="11.77" height="11.77"/>
	<rect x="279.91" y="260.91" class="st0" width="11.99" height="12.25"/>
	<rect x="255.56" y="402.18" class="st4" width="35.54" height="23.28"/>
	<polygon class="st1" points="244.43,355.59 244.43,378.88 255.54,378.88 255.54,390.14 267.81,390.14 267.81,402.18 290.56,402.18 
		290.56,390.14 302.56,390.53 302.56,378.88 290.56,378.88 290.56,367.62 279.07,367.62 279.07,355.59 267.81,355.59 267.81,344.34 
		255.56,344.34 255.56,355.59 	"/>
	<polygon class="st1" points="162.25,367.62 162.25,425.88 197.66,425.88 197.66,414.23 186.4,414.23 186.4,390.14 174.28,390.14 
		174.28,367.62 	"/>
	<polygon class="st1" points="314.56,297.72 314.56,308.79 337.76,308.79 337.76,332.18 361.23,332.1 361.23,321.02 372.3,321.02 
		372.3,285.49 361.23,285.49 361.23,274.41 348.97,274.41 348.97,262.15 314.56,262.26 	"/>
	<rect x="162.66" y="203.07" class="st2" width="23.32" height="11.52"/>
	<rect x="174.18" y="262.26" class="st2" width="46.48" height="12.16"/>
	<rect x="162.14" y="274.41" class="st2" width="23.37" height="11.13"/>
	<rect x="150.98" y="285.55" class="st2" width="23.37" height="12.04"/>
	<rect x="150.98" y="320.93" class="st2" width="11.17" height="11.37"/>
	<rect x="150.98" y="332.29" class="st2" width="23.4" height="12.04"/>
	<rect x="138.74" y="344.33" class="st2" width="82.33" height="11.26"/>
	<rect x="127.64" y="355.59" class="st2" width="46.73" height="12.03"/>
	<rect x="208.98" y="355.59" class="st2" width="35.46" height="12.03"/>
	<rect x="221.07" y="367.62" class="st2" width="23.37" height="11.26"/>
	<rect x="232.17" y="378.88" class="st2" width="23.37" height="11.26"/>
	<rect x="232.17" y="390.14" class="st2" width="35.64" height="12.04"/>
	<rect x="290.56" y="390.14" class="st2" width="24" height="12.04"/>
	<rect x="267.81" y="402.18" class="st2" width="34.75" height="12.04"/>
	<rect x="267.81" y="425.47" class="st2" width="23.29" height="12.04"/>
	<rect x="291.1" y="414.23" class="st2" width="11.46" height="11.24"/>
	<rect x="302.56" y="378.88" class="st2" width="23.08" height="11.65"/>
	<rect x="221.97" y="402.18" class="st2" width="33.59" height="12.04"/>
	<rect x="150.99" y="367.62" class="st2" width="11.26" height="46.6"/>
	<rect x="174.28" y="367.62" class="st2" width="12.12" height="22.51"/>
	<rect x="186.4" y="390.14" class="st2" width="11.26" height="24.09"/>
	<rect x="115.62" y="367.62" class="st2" width="12.02" height="46.6"/>
	<rect x="127.64" y="414.23" class="st2" width="11.1" height="23.3"/>
	<rect x="162.25" y="414.23" class="st2" width="12.03" height="11.65"/>
	<rect x="138.81" y="437.53" class="st2" width="46.87" height="12.47"/>
	<rect x="174.28" y="425.88" class="st2" width="23.38" height="11.65"/>
	<rect x="197.66" y="414.23" class="st2" width="24.31" height="11.65"/>
	<rect x="221.01" y="332.29" class="st2" width="46.81" height="12.04"/>
	<rect x="232.16" y="344.34" class="st2" width="23.4" height="11.25"/>
	<rect x="267.81" y="344.34" class="st2" width="11.25" height="11.25"/>
	<rect x="290.56" y="367.63" class="st2" width="12" height="11.25"/>
	<rect x="279.07" y="355.59" class="st2" width="11.5" height="12.03"/>
	<rect x="138.81" y="297.59" class="st2" width="23.33" height="23.33"/>
	<rect x="208.98" y="274.41" class="st2" width="23.37" height="11.13"/>
	<rect x="208.98" y="285.54" class="st2" width="12.03" height="12.03"/>
	<rect x="232.33" y="285.54" class="st2" width="12.03" height="46.75"/>
	<rect x="151.14" y="214.59" class="st2" width="23.04" height="12.95"/>
	<rect x="138.81" y="227.54" class="st2" width="12.33" height="11.25"/>
	<rect x="185.51" y="238.79" class="st2" width="12.33" height="12.33"/>
	<rect x="255.56" y="238.79" class="st2" width="12.33" height="12.33"/>
	<rect x="267.89" y="251.12" class="st2" width="11.03" height="11.03"/>
	<rect x="348.97" y="262.15" class="st2" width="12.26" height="12.26"/>
	<rect x="337.76" y="332.18" class="st2" width="23.47" height="12.26"/>
	<rect x="361.23" y="274.41" class="st2" width="11.08" height="11.08"/>
	<rect x="361.23" y="321.02" class="st2" width="11.08" height="11.08"/>
	<rect x="337.76" y="308.79" class="st2" width="11.08" height="12.23"/>
	<rect x="314.56" y="308.79" class="st2" width="11.08" height="12.23"/>
	<rect x="314.56" y="355.49" class="st2" width="11.08" height="23.39"/>
	<rect x="244.41" y="308.79" class="st2" width="11.15" height="12.23"/>
	<rect x="255.56" y="297.72" class="st2" width="59" height="11.07"/>
	<rect x="314.56" y="262.26" class="st2" width="11.08" height="35.46"/>
	<rect x="278.93" y="261.86" class="st2" width="11.15" height="35.85"/>
	<rect x="372.3" y="285.49" class="st2" width="12.08" height="35.53"/>
	<rect x="325.64" y="285.49" class="st2" width="12.08" height="82.8"/>
	<rect x="325.64" y="250.78" class="st2" width="23.33" height="11.37"/>
	<rect x="325.64" y="238.44" class="st2" width="13.11" height="12.64"/>
	<rect x="278.93" y="251.12" class="st2" width="46.71" height="11.03"/>
	<rect x="197.84" y="251.12" class="st2" width="11.14" height="11.14"/>
	<rect x="243.56" y="227.54" class="st2" width="12" height="12"/>
	<rect x="127.64" y="238.79" class="st2" width="11.16" height="70.23"/>
	<rect x="232.89" y="214.84" class="st2" width="22.67" height="12.69"/>
	<polygon class="st1" points="185.51,274.41 185.51,285.54 174.34,285.55 174.34,297.59 162.14,297.59 162.14,332.29 174.38,332.29 
		174.38,344.33 221.01,344.33 221.01,332.29 232.33,332.29 232.33,285.54 221.01,285.54 221.01,297.57 208.98,297.57 208.98,274.41 
			"/>
	<rect x="221.07" y="344.44" class="st5" width="11.09" height="11.15"/>
	<polygon class="st5" points="174.38,355.59 208.98,355.59 208.98,367.62 221.07,367.62 221.07,378.88 232.17,378.88 232.17,402.18 
		221.97,402.18 221.97,414.23 197.66,414.23 197.66,390.14 186.4,390.14 186.4,367.62 174.28,367.62 	"/>
	<polygon class="st5" points="244.41,321.02 244.36,332.29 267.81,332.29 267.81,344.34 279.07,344.34 279.07,355.59 290.56,355.59 
		290.56,367.62 302.56,367.63 302.56,378.88 314.56,378.88 314.56,355.49 325.64,355.49 325.64,321.02 314.56,321.02 314.56,308.79 
		255.56,308.79 255.56,321.02 	"/>
	<rect x="162.25" y="367.62" class="st0" width="12.03" height="46.6"/>
	<rect x="174.28" y="414.23" class="st0" width="23.38" height="11.65"/>
	<rect x="267.81" y="390.14" class="st0" width="23.29" height="12.04"/>
	<rect x="244.43" y="355.58" class="st0" width="11.1" height="23.3"/>
	<rect x="255.54" y="378.88" class="st0" width="12.28" height="11.25"/>
	<polygon class="st4" points="127.64,367.62 150.99,367.62 150.99,414.23 162.25,414.23 162.25,425.88 174.28,425.88 174.28,437.53 
		138.81,437.53 138.74,414.23 127.64,414.23 	"/>
	<rect x="290.08" y="262.15" class="st6" width="24.48" height="35.44"/>
</g>
</svg>
